<?xml version="1.0" encoding="UTF-8"?>
<svg version="1.1" xmlns="http://www.w3.org/2000/svg" width="512" height="512">
<path d="M0 0 C3.33469903 0.00849141 6.6676666 -0.02034735 10.00219727 -0.05200195 C29.00817876 -0.11484003 47.70968358 2.02398049 65.91821289 7.69604492 C67.39439087 8.14427612 67.39439087 8.14427612 68.90039062 8.6015625 C99.99044205 18.27006991 128.37573413 33.7194384 152.66821289 55.44604492 C153.53575195 56.20401367 154.40329102 56.96198242 155.29711914 57.74291992 C165.30608437 66.57712398 174.44254152 75.92750349 182.66821289 86.44604492 C183.47000977 87.4540918 184.27180664 88.46213867 185.09790039 89.50073242 C191.4197211 97.51397709 197.19586974 105.83238642 202.66821289 114.44604492 C203.3346582 115.4850293 204.00110352 116.52401367 204.68774414 117.59448242 C219.3462045 141.77646387 227.96078057 169.71069827 232.66821289 197.44604492 C232.98918945 199.30616211 232.98918945 199.30616211 233.31665039 201.20385742 C235.35032983 214.14277445 236.01611587 227.35826626 235.66821289 240.44604492 C235.65145508 241.5881543 235.63469727 242.73026367 235.61743164 243.90698242 C234.11787636 286.83710795 219.89655184 331.4839374 194.66821289 366.44604492 C193.97211914 367.41541992 193.27602539 368.38479492 192.55883789 369.38354492 C178.42446465 388.63035104 162.08950237 406.44030732 142.66821289 420.44604492 C141.62665039 421.20916992 140.58508789 421.97229492 139.51196289 422.75854492 C98.28553148 452.14768415 48.36054988 467.84885173 -2.33178711 466.44604492 C-3.5319043 466.41768555 -4.73202148 466.38932617 -5.96850586 466.36010742 C-54.46287772 464.64973742 -102.51561026 446.76236547 -140.33178711 416.44604492 C-141.31663086 415.66487305 -142.30147461 414.88370117 -143.31616211 414.07885742 C-157.93087944 402.23827248 -171.32533329 388.70832756 -182.33178711 373.44604492 C-183.09491211 372.40448242 -183.85803711 371.36291992 -184.64428711 370.28979492 C-214.00539429 329.10268623 -229.67769425 279.07778976 -228.33178711 228.44604492 C-228.3150293 227.30393555 -228.29827148 226.16182617 -228.28100586 224.98510742 C-227.16250094 192.96390948 -218.46091051 162.46859803 -205.33178711 133.44604492 C-204.80367432 132.2779126 -204.80367432 132.2779126 -204.26489258 131.08618164 C-199.57366774 120.876408 -193.86365478 111.57615999 -187.33178711 102.44604492 C-186.86756348 101.79635742 -186.40333984 101.14666992 -185.92504883 100.47729492 C-172.01717295 81.17310665 -156.24844813 62.99732263 -137.33178711 48.44604492 C-136.41268555 47.7215918 -135.49358398 46.99713867 -134.54663086 46.25073242 C-110.14542197 27.3997312 -82.27130633 14.0135141 -52.51928711 6.07104492 C-51.67446777 5.84441162 -50.82964844 5.61777832 -49.95922852 5.38427734 C-47.09460494 4.66473889 -44.22544741 4.03900631 -41.33178711 3.44604492 C-40.69528229 3.31507416 -40.05877747 3.18410339 -39.40298462 3.04916382 C-26.27721323 0.43800302 -13.35905604 -0.05160944 0 0 Z M-22.33178711 1.44604492 C-22.33178711 1.77604492 -22.33178711 2.10604492 -22.33178711 2.44604492 C-20.68178711 2.44604492 -19.03178711 2.44604492 -17.33178711 2.44604492 C-17.33178711 2.11604492 -17.33178711 1.78604492 -17.33178711 1.44604492 C-18.98178711 1.44604492 -20.63178711 1.44604492 -22.33178711 1.44604492 Z M24.66821289 1.44604492 C24.66821289 1.77604492 24.66821289 2.10604492 24.66821289 2.44604492 C26.31821289 2.44604492 27.96821289 2.44604492 29.66821289 2.44604492 C29.66821289 2.11604492 29.66821289 1.78604492 29.66821289 1.44604492 C28.01821289 1.44604492 26.36821289 1.44604492 24.66821289 1.44604492 Z " fill="#6BD152" transform="translate(252.331787109375,29.553955078125)"/>
<path d="M0 0 C1.34894946 -0.00390125 2.69789773 -0.00823877 4.04684448 -0.01298523 C6.85207127 -0.02038143 9.65717203 -0.02020319 12.46240234 -0.01489258 C16.03054592 -0.00908293 19.59817292 -0.02609671 23.16623116 -0.04923725 C25.94431495 -0.06406509 28.72227655 -0.0648345 31.50039291 -0.06172752 C33.44666589 -0.0624794 35.39292014 -0.07626043 37.33914185 -0.09040833 C49.55052694 -0.02711808 59.0666328 2.51191895 68.3046875 10.67578125 C73.28839298 16.33296044 75.6263133 19.64533591 76.6171875 27.30078125 C75.61341064 27.30489014 74.60963379 27.30899902 73.57543945 27.31323242 C69.83826906 27.33506437 66.10214549 27.38939419 62.36547852 27.45336914 C60.75067201 27.47651411 59.13571529 27.49093668 57.52075195 27.49633789 C55.19387602 27.50565399 52.86935074 27.54669493 50.54296875 27.59375 C49.82506668 27.58981735 49.10716461 27.5858847 48.36750793 27.58183289 C44.43666493 27.69532805 42.74569494 28.19687577 39.6496582 30.70019531 C37.4789499 33.07032986 37.4789499 33.07032986 37.171875 35.6171875 C37.27757812 36.35839844 37.38328125 37.09960938 37.4921875 37.86328125 C37.61207031 38.97896484 37.61207031 38.97896484 37.734375 40.1171875 C39.02401631 43.30705252 40.7476822 44.4274616 43.6171875 46.30078125 C47.18719384 46.93943159 47.18719384 46.93943159 51.10546875 46.91015625 C52.1602668 46.93496063 52.1602668 46.93496063 53.2363739 46.96026611 C55.46756862 47.00859065 57.6980827 47.03008035 59.9296875 47.05078125 C61.44860167 47.07895427 62.96748434 47.10888357 64.48632812 47.140625 C68.19646721 47.21434236 71.9064773 47.2640133 75.6171875 47.30078125 C73.40672697 55.60583202 69.32212958 61.09456082 62.15234375 65.98046875 C52.51628894 71.12578711 42.52012503 71.57813682 31.78515625 71.5390625 C29.33397873 71.55446533 26.88280673 71.57076768 24.43164062 71.58789062 C20.6021702 71.60440653 16.77310703 71.61322334 12.94360352 71.60620117 C9.22365866 71.60358902 5.50493773 71.63162213 1.78515625 71.6640625 C0.63927536 71.65385574 -0.50660553 71.64364899 -1.68721008 71.63313293 C-8.22780831 71.52678655 -8.22780831 71.52678655 -13.58081055 74.77807617 C-14.17547119 75.61056885 -14.77013184 76.44306152 -15.3828125 77.30078125 C-15.7128125 77.63078125 -16.0428125 77.96078125 -16.3828125 78.30078125 C-16.84500421 82.60271948 -16.84675886 86.26242512 -15.0703125 90.23828125 C-13.07298457 92.67945983 -11.4581777 94.17297919 -8.25119114 94.55411434 C-7.4214928 94.55574864 -6.59179445 94.55738295 -5.73695374 94.55906677 C-4.30533905 94.56930878 -4.30533905 94.56930878 -2.84480286 94.57975769 C-1.79910629 94.57720474 -0.75340973 94.57465179 0.32397461 94.57202148 C1.42679779 94.57724823 2.52962097 94.58247498 3.66586304 94.58786011 C6.06560273 94.59811545 8.46536477 94.60388317 10.86512566 94.6057415 C14.67032638 94.6093998 18.47526519 94.62611527 22.28041077 94.64649963 C31.73971355 94.69496513 41.19904607 94.72646463 50.65844727 94.74780273 C58.63725737 94.76583682 66.61583333 94.79537415 74.59454536 94.84184456 C77.11054086 94.85345158 79.6265692 94.85942453 82.14259148 94.85952568 C85.67720306 94.85971917 89.21131603 94.87809403 92.74584961 94.90014648 C93.77332809 94.89556931 94.80080658 94.89099213 95.85942078 94.88627625 C115.3905353 95.07859619 133.66354005 103.57925417 147.26416016 117.41113281 C164.64263463 135.9428699 170.55925874 159.18870944 169.953125 184.10546875 C168.95999195 207.17292079 159.4053644 227.30228981 142.6796875 243.11328125 C125.52794297 257.92016362 105.13010238 262.75487748 82.98828125 262.83984375 C81.54109999 262.85207988 80.09392084 262.86456726 78.64674377 262.87728882 C75.64082203 262.8995284 72.63514961 262.90929421 69.62915039 262.91162109 C65.81753241 262.91691642 62.00803638 262.96842188 58.19699001 263.03113747 C55.21710883 263.07239231 52.23772636 263.08126607 49.25758553 263.08173752 C47.85398343 263.08704363 46.45036808 263.10355733 45.0470562 263.13258743 C32.74068794 263.36621008 22.75568397 260.24943599 13.4921875 251.86328125 C10.39110504 248.3648239 8.35485178 244.62080773 6.6171875 240.30078125 C6.318125 239.57761719 6.0190625 238.85445312 5.7109375 238.109375 C2.35006105 229.16259741 2.93989792 221.09309768 6.6171875 212.30078125 C12.01088501 202.16716775 19.78772477 195.91060216 30.6171875 192.30078125 C32.4610946 192.19933322 34.30837257 192.15506681 36.1550293 192.14306641 C37.29018478 192.13280426 38.42534027 192.12254211 39.59489441 192.11196899 C40.82299332 192.10466766 42.05109222 192.09736633 43.31640625 192.08984375 C45.91341769 192.06176885 48.51042282 192.03310434 51.10742188 192.00390625 C55.20431118 191.96155012 59.30116201 191.92476258 63.39819336 191.89941406 C67.35031132 191.87430817 71.302005 191.82586374 75.25390625 191.77734375 C77.08087288 191.77246445 77.08087288 191.77246445 78.94474792 191.76748657 C89.60167898 191.64774054 89.60167898 191.64774054 98.5859375 186.421875 C99.79994128 183.92488996 100.08299828 182.13688143 100.1171875 179.36328125 C100.148125 178.52925781 100.1790625 177.69523438 100.2109375 176.8359375 C99.3076442 172.97911281 97.76855905 171.6967187 94.6171875 169.30078125 C91.06737494 168.56947698 87.57549966 168.65151309 83.9621582 168.70483398 C82.88818787 168.70077545 81.81421753 168.69671692 80.70770264 168.6925354 C78.37565922 168.68701684 76.04356656 168.69303028 73.71157265 168.70919609 C70.00513163 168.73463469 66.29980234 168.72980742 62.5933075 168.71730042 C55.37331204 168.69829103 48.15358981 168.71218764 40.93362427 168.73277283 C31.16458989 168.75962596 21.39588601 168.76562696 11.62685204 168.73777962 C8.00327423 168.73445331 4.38040677 168.75553503 0.75691223 168.77818298 C-23.4281708 168.8106144 -42.92203164 165.06957565 -61.3828125 148.30078125 C-62.01574219 147.76066406 -62.64867187 147.22054687 -63.30078125 146.6640625 C-77.27665349 133.9674463 -86.40162703 112.82558831 -87.578125 94.21044922 C-88.48351135 68.56160854 -85.03301649 46.12751027 -67.8671875 25.9375 C-63.73673253 21.55376241 -59.24007865 17.8497866 -54.3828125 14.30078125 C-53.62742188 13.74648437 -52.87203125 13.1921875 -52.09375 12.62109375 C-46.89377066 9.1723102 -41.37876895 7.05342497 -35.5078125 5.05078125 C-34.78907959 4.80432861 -34.07034668 4.55787598 -33.32983398 4.30395508 C-22.35952939 0.7646341 -11.468563 -0.00827682 0 0 Z " fill="#FEFEFD" transform="translate(206.3828125,131.69921875)"/>
<path d="M0 0 C3.33469903 0.00849141 6.6676666 -0.02034735 10.00219727 -0.05200195 C29.00817876 -0.11484003 47.70968358 2.02398049 65.91821289 7.69604492 C67.39439087 8.14427612 67.39439087 8.14427612 68.90039062 8.6015625 C99.99044205 18.27006991 128.37573413 33.7194384 152.66821289 55.44604492 C153.53575195 56.20401367 154.40329102 56.96198242 155.29711914 57.74291992 C165.30608437 66.57712398 174.44254152 75.92750349 182.66821289 86.44604492 C183.47000977 87.4540918 184.27180664 88.46213867 185.09790039 89.50073242 C191.4197211 97.51397709 197.19586974 105.83238642 202.66821289 114.44604492 C203.3346582 115.4850293 204.00110352 116.52401367 204.68774414 117.59448242 C219.3462045 141.77646387 227.96078057 169.71069827 232.66821289 197.44604492 C232.98918945 199.30616211 232.98918945 199.30616211 233.31665039 201.20385742 C235.35032983 214.14277445 236.01611587 227.35826626 235.66821289 240.44604492 C235.65145508 241.5881543 235.63469727 242.73026367 235.61743164 243.90698242 C234.11787636 286.83710795 219.89655184 331.4839374 194.66821289 366.44604492 C193.97211914 367.41541992 193.27602539 368.38479492 192.55883789 369.38354492 C178.42446465 388.63035104 162.08950237 406.44030732 142.66821289 420.44604492 C141.62665039 421.20916992 140.58508789 421.97229492 139.51196289 422.75854492 C98.28553148 452.14768415 48.36054988 467.84885173 -2.33178711 466.44604492 C-3.5319043 466.41768555 -4.73202148 466.38932617 -5.96850586 466.36010742 C-54.46287772 464.64973742 -102.51561026 446.76236547 -140.33178711 416.44604492 C-141.31663086 415.66487305 -142.30147461 414.88370117 -143.31616211 414.07885742 C-157.93087944 402.23827248 -171.32533329 388.70832756 -182.33178711 373.44604492 C-183.09491211 372.40448242 -183.85803711 371.36291992 -184.64428711 370.28979492 C-214.00539429 329.10268623 -229.67769425 279.07778976 -228.33178711 228.44604492 C-228.3150293 227.30393555 -228.29827148 226.16182617 -228.28100586 224.98510742 C-227.16250094 192.96390948 -218.46091051 162.46859803 -205.33178711 133.44604492 C-204.80367432 132.2779126 -204.80367432 132.2779126 -204.26489258 131.08618164 C-199.57366774 120.876408 -193.86365478 111.57615999 -187.33178711 102.44604492 C-186.86756348 101.79635742 -186.40333984 101.14666992 -185.92504883 100.47729492 C-172.01717295 81.17310665 -156.24844813 62.99732263 -137.33178711 48.44604492 C-136.41268555 47.7215918 -135.49358398 46.99713867 -134.54663086 46.25073242 C-110.14542197 27.3997312 -82.27130633 14.0135141 -52.51928711 6.07104492 C-51.67446777 5.84441162 -50.82964844 5.61777832 -49.95922852 5.38427734 C-47.09460494 4.66473889 -44.22544741 4.03900631 -41.33178711 3.44604492 C-40.69528229 3.31507416 -40.05877747 3.18410339 -39.40298462 3.04916382 C-26.27721323 0.43800302 -13.35905604 -0.05160944 0 0 Z M-22.33178711 1.44604492 C-22.33178711 1.77604492 -22.33178711 2.10604492 -22.33178711 2.44604492 C-20.68178711 2.44604492 -19.03178711 2.44604492 -17.33178711 2.44604492 C-17.33178711 2.11604492 -17.33178711 1.78604492 -17.33178711 1.44604492 C-18.98178711 1.44604492 -20.63178711 1.44604492 -22.33178711 1.44604492 Z M24.66821289 1.44604492 C24.66821289 1.77604492 24.66821289 2.10604492 24.66821289 2.44604492 C26.31821289 2.44604492 27.96821289 2.44604492 29.66821289 2.44604492 C29.66821289 2.11604492 29.66821289 1.78604492 29.66821289 1.44604492 C28.01821289 1.44604492 26.36821289 1.44604492 24.66821289 1.44604492 Z M-46.33178711 25.44604492 C-47.32871582 25.69241699 -48.32564453 25.93878906 -49.3527832 26.19262695 C-82.47772475 34.66924539 -113.25980437 52.20392265 -137.8059082 75.97143555 C-138.86236233 76.99239282 -139.92568128 78.00627637 -140.99438477 79.0144043 C-171.87944968 108.16670126 -192.98736024 148.65488985 -200.33178711 190.44604492 C-200.50315186 191.39213623 -200.6745166 192.33822754 -200.85107422 193.31298828 C-202.52592091 203.5616151 -202.68634276 213.64576551 -202.64428711 224.00854492 C-202.64312897 224.89178436 -202.64197083 225.7750238 -202.64077759 226.68502808 C-202.60859078 239.09437956 -202.20241435 251.20904495 -199.73754883 263.41137695 C-199.34877691 265.3608506 -199.02810397 267.32353253 -198.71069336 269.28588867 C-192.39189268 306.06052368 -172.60364693 341.27783323 -146.80639648 367.92016602 C-145.78543922 368.97662014 -144.77155566 370.03993909 -143.76342773 371.10864258 C-125.68638391 390.26015824 -104.11995832 404.34698504 -80.33178711 415.44604492 C-79.20772461 415.97842773 -78.08366211 416.51081055 -76.92553711 417.05932617 C-60.49478616 424.48771474 -43.07993527 428.6012245 -25.33178711 431.44604492 C-23.73113403 431.71191406 -23.73113403 431.71191406 -22.09814453 431.9831543 C-17.86812092 432.50303015 -13.75211284 432.60798373 -9.49584961 432.61401367 C-8.6582309 432.61734207 -7.82061218 432.62067047 -6.95761108 432.62409973 C-5.18764795 432.62914233 -3.41767539 432.63150889 -1.64770508 432.63134766 C1.00073919 432.63351024 3.6487497 432.65162794 6.29711914 432.6706543 C57.92621397 432.84364896 107.95904527 412.92450647 145.14233398 376.9206543 C146.19878811 375.89969703 147.26210706 374.88581348 148.33081055 373.87768555 C171.36329409 352.13741069 187.680751 325.01801377 198.66821289 295.44604492 C199.09875977 294.31424805 199.52930664 293.18245117 199.97290039 292.01635742 C202.77046814 284.21444487 204.69953165 276.3587589 206.41821289 268.25854492 C206.62905518 267.27313721 206.83989746 266.28772949 207.05712891 265.27246094 C209.61234265 252.69125478 209.87981797 240.17609654 209.90844727 227.38476562 C209.91813119 224.78051531 209.94924679 222.17706373 209.98071289 219.57299805 C210.05108832 208.52052012 208.987928 198.24460032 206.66821289 187.44604492 C206.44375488 186.34220459 206.21929687 185.23836426 205.98803711 184.10107422 C198.2286024 146.98344474 180.60422721 112.3001679 154.14282227 84.97192383 C153.121865 83.9154697 152.10798145 82.85215075 151.09985352 81.78344727 C122.64660214 51.63897815 83.91836824 31.49176202 43.41821289 23.19604492 C42.62688965 23.03273682 41.83556641 22.86942871 41.02026367 22.70117188 C12.98684233 17.27544164 -18.76557058 18.53596218 -46.33178711 25.44604492 Z " fill="#88D673" transform="translate(252.331787109375,29.553955078125)"/>
<path d="M0 0 C0 3.14622276 -0.34128111 3.95067463 -1.87109375 6.5625 C-2.27602051 7.26648926 -2.68094727 7.97047852 -3.09814453 8.69580078 C-3.76112549 9.83637939 -3.76112549 9.83637939 -4.4375 11 C-24.026198 45.66229531 -34.45934593 82.38334441 -34.375 122.25 C-34.37445618 123.21810608 -34.37391235 124.18621216 -34.37335205 125.18365479 C-34.24619266 174.54082597 -18.9907089 223.1501365 12 262 C12.71671875 262.90878906 13.4334375 263.81757813 14.171875 264.75390625 C31.28147678 286.08023613 51.21520897 304.34222011 75 318 C76.30883052 318.78476149 77.61741069 319.56994064 78.92578125 320.35546875 C108.34422863 337.68855488 144.2961984 348.99824638 178.63671875 349.203125 C179.43029282 349.21013931 180.22386688 349.21715363 181.04148865 349.22438049 C183.59021755 349.24178778 186.13871382 349.24823346 188.6875 349.25 C189.55993347 349.25067474 190.43236694 349.25134949 191.33123779 349.25204468 C204.76481263 349.23554455 217.80268761 348.71467895 231 346 C231.85577637 345.82839355 232.71155273 345.65678711 233.59326172 345.47998047 C267.34819878 338.5276936 300.12767489 324.87187732 327 303 C327.90363281 302.28585937 328.80726563 301.57171875 329.73828125 300.8359375 C375.32142243 264.34363494 406.04512511 211.30068198 413.3046875 153.0625 C415.84704364 127.80799551 416.00257062 100.75050025 410 76 C409.6299585 74.4545752 409.6299585 74.4545752 409.25244141 72.87792969 C403.14533872 48.08211806 393.77220057 23.03279986 379 2 C379.33 1.34 379.66 0.68 380 0 C401.41932006 27.5474634 413.21073079 61.89066455 419 96 C419.32097656 97.86011719 419.32097656 97.86011719 419.6484375 99.7578125 C421.68211694 112.69672953 422.34790298 125.91222134 422 139 C421.98324219 140.14210938 421.96648437 141.28421875 421.94921875 142.4609375 C420.44966347 185.39106302 406.22833895 230.03789248 381 265 C380.30390625 265.969375 379.6078125 266.93875 378.890625 267.9375 C364.75625176 287.18430611 348.42128948 304.9942624 329 319 C327.9584375 319.763125 326.916875 320.52625 325.84375 321.3125 C284.61731859 350.70163923 234.69233699 366.40280681 184 365 C182.79988281 364.97164063 181.59976563 364.94328125 180.36328125 364.9140625 C131.86890939 363.2036925 83.81617685 345.31632055 46 315 C45.01515625 314.21882813 44.0303125 313.43765625 43.015625 312.6328125 C28.40090767 300.79222756 15.00645382 287.26228263 4 272 C3.236875 270.9584375 2.47375 269.916875 1.6875 268.84375 C-27.67360718 227.65664131 -43.34590714 177.63174484 -42 127 C-41.98324219 125.85789062 -41.96648438 124.71578125 -41.94921875 123.5390625 C-40.83071383 91.51786456 -32.1291234 61.02255311 -19 32 C-18.6479248 31.22124512 -18.29584961 30.44249023 -17.93310547 29.64013672 C-13.3387537 19.64119333 -7.85635704 7.85635704 0 0 Z " fill="#060501" transform="translate(66,131)"/>
<path d="M0 0 C0.88300781 -0.01933594 1.76601563 -0.03867188 2.67578125 -0.05859375 C10.6777308 1.25949651 16.03082192 6.19196235 21.546875 11.80078125 C22.25853821 12.51098923 22.97020142 13.2211972 23.70343018 13.95292664 C25.19726678 15.44841458 26.68619634 16.94881877 28.17041016 18.45385742 C30.43258967 20.74502674 32.7128855 23.01691576 34.99609375 25.28710938 C36.45163667 26.74888977 37.90610101 28.2117451 39.359375 29.67578125 C40.03546814 30.34893875 40.71156128 31.02209625 41.40814209 31.71565247 C45.80140654 36.1967334 49.99659945 40.73274981 51.18359375 47.09765625 C51.15458984 48.28681641 51.15458984 48.28681641 51.125 49.5 C51.12371094 50.29535156 51.12242187 51.09070313 51.12109375 51.91015625 C49.83990557 59.37798286 44.62208606 63.94150662 39.4765625 69.046875 C38.67141205 69.85489563 37.8662616 70.66291626 37.03671265 71.49542236 C35.3374066 73.19676484 33.63432632 74.8943449 31.92773438 76.58837891 C29.31808077 79.18195361 26.72483105 81.79115783 24.1328125 84.40234375 C22.47752372 86.05565043 20.82130475 87.70802644 19.1640625 89.359375 C18.38995026 90.13955994 17.61583801 90.91974487 16.81826782 91.72357178 C15.72220718 92.80544769 15.72220718 92.80544769 14.60400391 93.90917969 C13.96685455 94.54394226 13.3297052 95.17870483 12.67324829 95.83270264 C8.3652968 99.31420592 3.83453088 100.03302942 -1.56452942 99.85499573 C-9.26389622 98.68524058 -15.55957443 91.64058115 -20.83203125 86.31640625 C-21.83081551 85.32192726 -21.83081551 85.32192726 -22.84977722 84.30735779 C-24.24232211 82.91683758 -25.63115361 81.52258923 -27.01635742 80.12475586 C-29.12678325 77.99820312 -31.25282837 75.88821603 -33.38085938 73.77929688 C-34.74054664 72.41762789 -36.09930338 71.05502897 -37.45703125 69.69140625 C-38.08623978 69.06827042 -38.7154483 68.44513458 -39.36372375 67.80311584 C-44.58204436 62.50133908 -48.87481551 57.28332388 -48.9375 49.5 C-48.98777344 48.06333984 -48.98777344 48.06333984 -49.0390625 46.59765625 C-47.29375604 39.0065115 -40.27083913 33.09694628 -34.90234375 27.76171875 C-34.21241837 27.06987991 -33.52249298 26.37804108 -32.81166077 25.66523743 C-31.36444417 24.21666968 -29.91473839 22.77058484 -28.46264648 21.3269043 C-26.24552568 19.12054741 -24.03934828 16.90364864 -21.83398438 14.68554688 C-20.41991206 13.27279538 -19.00521988 11.860664 -17.58984375 10.44921875 C-16.60684547 9.46014778 -16.60684547 9.46014778 -15.60398865 8.45109558 C-10.86344894 3.75868747 -6.99347799 0.01012081 0 0 Z " fill="#FDFEFC" transform="translate(342.3125,117.5625)"/>
<path d="M0 0 C3.17578611 1.4334741 5.48179318 2.85150486 7.87890625 5.3984375 C9.71846891 10.68718014 9.86300559 16.07092945 7.56640625 21.2109375 C4.4883219 24.9730406 2.67273457 26.8875766 -2.35546875 27.58203125 C-7.15638059 27.82804071 -10.31173331 27.70705215 -14.12109375 24.5859375 C-17.75861616 20.92273846 -18.89561533 18.01284245 -19.55859375 12.8984375 C-18.87280218 7.21616446 -16.10887949 3.89505218 -11.74609375 0.3359375 C-7.62786567 -1.33096434 -4.23458429 -1.45052059 0 0 Z " fill="#6DD152" transform="translate(348.12109375,153.7265625)"/>
<path d="M0 0 C3.75212276 2.01502889 5.63644095 3.45466142 8 7 C8.48990241 12.19296559 7.95682924 15.66331712 5 20 C0.68589482 22.94143535 -2.82933754 23.65808431 -8 23 C-11.40850414 20.87915298 -13.81386655 18.8818913 -15 15 C-15.7557317 8.30637636 -15.7557317 8.30637636 -13.94921875 5.18359375 C-9.85033018 0.16578031 -6.35067759 -0.87351328 0 0 Z " fill="#6DD152" transform="translate(224,146)"/>
<path d="M0 0 C3.84289757 3.57369284 6.66680314 7.26745115 9.3125 11.8125 C9.69857422 12.46992188 10.08464844 13.12734375 10.48242188 13.8046875 C22.35388705 34.28345066 38.36287549 62.68863661 36 87 C35.01 86.67 34.02 86.34 33 86 C32.21972656 83.92480469 32.21972656 83.92480469 31.640625 81.171875 C31.41624756 80.15561035 31.19187012 79.1393457 30.96069336 78.09228516 C30.72616455 76.98933105 30.49163574 75.88637695 30.25 74.75 C24.51123337 49.66181451 15.72940225 25.66700101 1.30273438 4.14892578 C0 2 0 2 0 0 Z " fill="#060C00" transform="translate(445,131)"/>
<path d="M0 0 C3.84320957 3.57398298 6.66536033 7.2679539 9.3125 11.8125 C9.69349854 12.45759521 10.07449707 13.10269043 10.46704102 13.76733398 C13.28903607 18.61528705 15.91485191 23.55291547 18.4375 28.5625 C18.7672583 29.21645752 19.0970166 29.87041504 19.43676758 30.54418945 C21.27977221 34.28654351 22.77731814 38.01245965 24 42 C22.515 42.495 22.515 42.495 21 43 C20.29037109 41.34677734 20.29037109 41.34677734 19.56640625 39.66015625 C16.04718848 31.55190733 12.38878163 23.56306815 8.25 15.75 C7.88592041 15.06043213 7.52184082 14.37086426 7.14672852 13.66040039 C5.47301717 10.54585185 3.7392623 7.55458247 1.734375 4.640625 C0 2 0 2 0 0 Z " fill="#142005" transform="translate(445,131)"/>
<path d="M0 0 C0 3.14622276 -0.34128111 3.95067463 -1.87109375 6.5625 C-2.27650391 7.26818115 -2.68191406 7.9738623 -3.09960938 8.70092773 C-3.54111328 9.45962158 -3.98261719 10.21831543 -4.4375 11 C-8.70295679 18.47605691 -12.53077628 26.07569613 -16.13061523 33.89257812 C-16.47938721 34.64861328 -16.82815918 35.40464844 -17.1875 36.18359375 C-17.49042969 36.84931396 -17.79335938 37.51503418 -18.10546875 38.20092773 C-19 40 -19 40 -21 43 C-21.66 42.34 -22.32 41.68 -23 41 C-16.43979039 26.5470382 -9.81983432 12.56207529 0 0 Z " fill="#141E05" transform="translate(66,131)"/>
<path d="M0 0 C-1.48588783 3.81965515 -3.55379466 5.34147755 -6.9375 7.5625 C-10.48221638 9.88539895 -10.48221638 9.88539895 -13.66015625 12.66015625 C-15 14 -15 14 -17.5 14.875 C-20.71016898 16.31957604 -21.22362437 18.01568894 -23 21 C-26.1875 23.3125 -26.1875 23.3125 -29 25 C-29.66 24.67 -30.32 24.34 -31 24 C-25.44582966 16.76948007 -9.74514331 0 0 0 Z " fill="#AFC886" transform="translate(135,65)"/>
<path d="M0 0 C-2.30807992 2.30807992 -3.4814412 2.53353784 -6.61328125 3.25390625 C-7.53173828 3.46853516 -8.45019531 3.68316406 -9.39648438 3.90429688 C-10.35876953 4.12150391 -11.32105469 4.33871094 -12.3125 4.5625 C-13.73852539 4.89411133 -13.73852539 4.89411133 -15.19335938 5.23242188 C-27.7619737 8.13962756 -27.7619737 8.13962756 -32.3125 8.0625 C-34.1378125 8.0315625 -34.1378125 8.0315625 -36 8 C-36 7.34 -36 6.68 -36 6 C-35.24904053 5.85900879 -34.49808105 5.71801758 -33.72436523 5.57275391 C-30.29476478 4.92687712 -26.86613466 4.27598343 -23.4375 3.625 C-22.25607422 3.40328125 -21.07464844 3.1815625 -19.85742188 2.953125 C-12.78741432 1.63265265 -12.78741432 1.63265265 -5.84765625 -0.2265625 C-3 -1 -3 -1 0 0 Z " fill="#121307" transform="translate(321,473)"/>
<path d="M0 0 C0.33 0 0.66 0 1 0 C3.21664732 12.66637763 3.23537398 25.11225165 3.125 37.9375 C3.11494319 39.98892789 3.10582215 42.04036059 3.09765625 44.09179688 C3.0758728 49.06131917 3.04149408 54.0306048 3 59 C2.67 59 2.34 59 2 59 C1.67 43.16 1.34 27.32 1 11 C0.34 11 -0.32 11 -1 11 C-0.67 7.37 -0.34 3.74 0 0 Z " fill="#93C374" transform="translate(478,217)"/>
<path d="M0 0 C0.33 0 0.66 0 1 0 C1.33 3.63 1.66 7.26 2 11 C1.34 11 0.68 11 0 11 C-0.33 26.84 -0.66 42.68 -1 59 C-1.33 59 -1.66 59 -2 59 C-2.05002947 53.00839406 -2.0860126 47.01691394 -2.10986328 41.02514648 C-2.11982288 38.99354937 -2.13339544 36.96196622 -2.15087891 34.93041992 C-2.25000689 23.10211962 -2.04313026 11.67486555 0 0 Z " fill="#93C374" transform="translate(33,217)"/>
<path d="M0 0 C0.66 0.33 1.32 0.66 2 1 C-21.33957766 25.16978883 -21.33957766 25.16978883 -31 30 C-29.49066744 26.2097098 -27.31798482 24.41322011 -24.125 21.9375 C-15.60792328 15.15517609 -7.59406023 7.80500635 0 0 Z " fill="#1D1C0C" transform="translate(422,408)"/>
<path d="M0 0 C-0.99 0.495 -0.99 0.495 -2 1 C-2 1.66 -2 2.32 -2 3 C-7.04140164 5.81532819 -11.22621075 7.5188509 -17 8 C-16 5 -16 5 -13.92578125 3.61328125 C-5.27282955 -0.69379336 -5.27282955 -0.69379336 0 0 Z " fill="#ABCE8A" transform="translate(164,51)"/>
<path d="M0 0 C-1.48507067 3.75830733 -3.52071389 5.41236747 -6.8125 7.6875 C-7.66457031 8.28949219 -8.51664063 8.89148438 -9.39453125 9.51171875 C-12.00225452 11.00128781 -14.04363619 11.60192588 -17 12 C-13.0637025 7.67007275 -6.06457203 0 0 0 Z " fill="#AAB179" transform="translate(135,65)"/>
<path d="M0 0 C-1.42246395 3.69840628 -3.80988455 5.85632808 -6.6015625 8.5390625 C-8.19613266 10.20489837 -9.17270218 11.84902568 -10 14 C-10.99 13.67 -11.98 13.34 -13 13 C-3.61290323 0 -3.61290323 0 0 0 Z " fill="#B5D290" transform="translate(101,92)"/>
<path d="M0 0 C0.33 0 0.66 0 1 0 C2.18396883 8.02350304 3.28545428 15.86455314 3 24 C2.67 24 2.34 24 2 24 C0.89771304 19.59085217 0.92345464 15.51617599 1 11 C0.34 11 -0.32 11 -1 11 C-0.67 7.37 -0.34 3.74 0 0 Z " fill="#97906B" transform="translate(478,217)"/>
<path d="M0 0 C0.33 0 0.66 0 1 0 C1.33 3.63 1.66 7.26 2 11 C1.34 11 0.68 11 0 11 C0.020625 12.216875 0.04125 13.43375 0.0625 14.6875 C0.06824116 17.91977322 -0.21233685 20.84934741 -1 24 C-1.33 24 -1.66 24 -2 24 C-2.28545428 15.86455314 -1.18396883 8.02350304 0 0 Z " fill="#97906B" transform="translate(33,217)"/>
<path d="M0 0 C0.33 0 0.66 0 1 0 C1.3125 2.1875 1.3125 2.1875 1 5 C-1.4375 7.6875 -1.4375 7.6875 -4 10 C-4.33 10.66 -4.66 11.32 -5 12 C-5.99 12 -6.98 12 -8 12 C-6.51272258 7.09198451 -3.55364515 3.59508707 0 0 Z " fill="#878860" transform="translate(75,119)"/>
<path d="M0 0 C5.59363406 4.06133537 10.85963514 8.3791401 16 13 C15.67 13.66 15.34 14.32 15 15 C12.89441606 13.2308289 10.79049842 11.4597399 8.6875 9.6875 C8.09259766 9.18798828 7.49769531 8.68847656 6.88476562 8.17382812 C6.30791016 7.68720703 5.73105469 7.20058594 5.13671875 6.69921875 C4.60780029 6.25408936 4.07888184 5.80895996 3.53393555 5.3503418 C1.95471373 3.96013395 0.47187013 2.50273504 -1 1 C-0.67 0.67 -0.34 0.34 0 0 Z " fill="#211F10" transform="translate(105,423)"/>
<path d="M0 0 C3.87511727 0.54984772 5.59576506 2.27555331 8.25 5.0625 C8.95640625 5.79597656 9.6628125 6.52945313 10.390625 7.28515625 C10.92171875 7.85105469 11.4528125 8.41695312 12 9 C11.67 9.99 11.34 10.98 11 12 C9.16364422 10.19047409 7.33083792 8.37759362 5.5 6.5625 C4.97535156 6.04623047 4.45070313 5.52996094 3.91015625 4.99804688 C2.58775448 3.68423213 1.29164432 2.34406495 0 1 C0 0.67 0 0.34 0 0 Z " fill="#B8D091" transform="translate(409,91)"/>
<path d="M0 0 C3.95820859 0.56545837 6.6659053 1.80902348 10 4 C9.67 4.99 9.34 5.98 9 7 C4.75272765 6.52808085 2.76506398 4.07229331 0 1 C0 0.67 0 0.34 0 0 Z " fill="#B3C584" transform="translate(371,62)"/>
<path d="M0 0 C9.24 0 18.48 0 28 0 C28 0.33 28 0.66 28 1 C18.76 1 9.52 1 0 1 C0 0.67 0 0.34 0 0 Z " fill="#37530F" transform="translate(242,29)"/>
<path d="M0 0 C-2.62451617 2.62451617 -4.4877828 2.5832868 -8.125 3.125 C-9.22070312 3.29257812 -10.31640625 3.46015625 -11.4453125 3.6328125 C-12.70988281 3.81457031 -12.70988281 3.81457031 -14 4 C-14 3.34 -14 2.68 -14 2 C-12.23225581 1.46877637 -10.46065917 0.95035927 -8.6875 0.4375 C-7.70136719 0.14746094 -6.71523438 -0.14257812 -5.69921875 -0.44140625 C-3 -1 -3 -1 0 0 Z " fill="#1B190C" transform="translate(321,473)"/>
<path d="M0 0 C1.93938819 2.90908228 2.96774957 5.40862379 4.125 8.6875 C4.47820312 9.68136719 4.83140625 10.67523438 5.1953125 11.69921875 C5.46085937 12.45847656 5.72640625 13.21773437 6 14 C5.34 14 4.68 14 4 14 C3.34 11.69 2.68 9.38 2 7 C1.34 7 0.68 7 0 7 C-0.93423645 3.98968256 -1.04449911 3.13349732 0 0 Z " fill="#B1B481" transform="translate(462,164)"/>
<path d="M0 0 C2.91227269 3.28804981 4.49701212 5.59885603 5 10 C2 9 2 9 0.25 6.125 C-1 3 -1 3 0 0 Z " fill="#0F1303" transform="translate(459,153)"/>
<path d="M0 0 C5.57142857 5.14285714 5.57142857 5.14285714 6 9 C2.56225537 7.85408512 1.82586841 7.04311402 0 4 C0 2.68 0 1.36 0 0 Z " fill="#807A58" transform="translate(439,123)"/>
<path d="M0 0 C0 4.05164344 -1.61357669 5.79537442 -4 9 C-4.99 9.66 -5.98 10.32 -7 11 C-6.40716379 7.60807637 -5.23256811 5.7892243 -2.9375 3.25 C-2.38964844 2.63640625 -1.84179688 2.0228125 -1.27734375 1.390625 C-0.85582031 0.93171875 -0.43429688 0.4728125 0 0 Z " fill="#95976E" transform="translate(90,101)"/>
<path d="M0 0 C-0.99 0.495 -0.99 0.495 -2 1 C-2 1.66 -2 2.32 -2 3 C-5.01031744 3.93423645 -5.86650268 4.04449911 -9 3 C-9 2.34 -9 1.68 -9 1 C-5.8035914 -0.06546953 -3.34252724 -0.07427838 0 0 Z " fill="#AED390" transform="translate(173,47)"/>
<path d="M0 0 C2.64 0.33 5.28 0.66 8 1 C4.77208445 3.1519437 3.71599191 3.20086443 0 3 C0 2.01 0 1.02 0 0 Z " fill="#161709" transform="translate(275,480)"/>
<path d="M0 0 C2.64 0.33 5.28 0.66 8 1 C7.67 1.66 7.34 2.32 7 3 C4.36 2.67 1.72 2.34 -1 2 C-0.67 1.34 -0.34 0.68 0 0 Z " fill="#19170B" transform="translate(207,476)"/>
<path d="M0 0 C-0.33 0.66 -0.66 1.32 -1 2 C-3.32156597 2.40729228 -5.6568787 2.74438677 -8 3 C-8.33 2.34 -8.66 1.68 -9 1 C-5.92677456 0.08941469 -3.19902639 -0.08886184 0 0 Z " fill="#15190B" transform="translate(330,470)"/>
<path d="M0 0 C0.33 0 0.66 0 1 0 C1.08096803 1.45742463 1.13917774 2.91612807 1.1875 4.375 C1.22230469 5.18710938 1.25710937 5.99921875 1.29296875 6.8359375 C1.19628906 7.55007812 1.09960938 8.26421875 1 9 C0.01 9.66 -0.98 10.32 -2 11 C-1 3.57142857 -1 3.57142857 0 0 Z " fill="#AAA37C" transform="translate(40,188)"/>
<path d="M0 0 C0.99 0 1.98 0 3 0 C4.75 1.8125 4.75 1.8125 6 4 C5.67 4.99 5.34 5.98 5 7 C3.5 5.625 3.5 5.625 2 4 C2 3.34 2 2.68 2 2 C1.34 2 0.68 2 0 2 C0 1.34 0 0.68 0 0 Z " fill="#BBBE90" transform="translate(423,105)"/>
<path d="M0 0 C2.31 0.33 4.62 0.66 7 1 C7 1.66 7 2.32 7 3 C5.1875 3.6875 5.1875 3.6875 3 4 C1.25 2.625 1.25 2.625 0 1 C0 0.67 0 0.34 0 0 Z " fill="#B4CA95" transform="translate(343,48)"/>
<path d="M0 0 C2.97 0.495 2.97 0.495 6 1 C5.67 2.32 5.34 3.64 5 5 C4.01 4.67 3.02 4.34 2 4 C2 3.34 2 2.68 2 2 C1.34 2 0.68 2 0 2 C0 1.34 0 0.68 0 0 Z " fill="#AECF8E" transform="translate(332,43)"/>
</svg>
